<?xml version="1.0" standalone="no"?>
<!DOCTYPE svg PUBLIC "-//W3C//DTD SVG 20010904//EN"
 "http://www.w3.org/TR/2001/REC-SVG-20010904/DTD/svg10.dtd">
<svg version="1.0" xmlns="http://www.w3.org/2000/svg"
 width="500.000000pt" height="500.000000pt" viewBox="0 0 500.000000 500.000000"
 preserveAspectRatio="xMidYMid meet">

<g transform="translate(0.000000,500.000000) scale(0.100000,-0.100000)"
fill="#000000" stroke="none">
<path d="M3295 3672 c-11 -2 -34 -17 -51 -34 l-32 -30 -82 17 c-45 9 -84 14
-86 12 -3 -3 22 -20 55 -38 34 -19 61 -40 61 -47 0 -8 -9 -27 -21 -43 l-21
-30 29 7 c15 3 34 12 42 19 8 8 28 11 50 8 38 -5 38 -5 33 27 -3 24 2 38 20
58 25 27 42 69 30 75 -4 2 -16 2 -27 -1z"/>
<path d="M2515 3555 c-160 -88 -206 -125 -155 -125 22 0 80 -50 80 -69 0 -7
-49 -11 -150 -11 l-149 0 -105 -57 c-102 -56 -104 -58 -109 -98 -6 -40 7 -162
17 -172 3 -3 58 -8 123 -10 194 -8 394 33 590 119 99 43 251 138 295 185 l27
28 -18 40 c-35 78 -109 162 -187 215 -42 27 -79 50 -82 49 -4 -1 -83 -43 -177
-94z m81 -291 c19 -15 34 -30 34 -35 0 -5 -39 -9 -86 -9 -74 0 -85 2 -82 16 2
9 10 20 18 24 8 4 24 12 35 18 30 17 43 14 81 -14z"/>
<path d="M1444 1298 c9 -12 16 -33 16 -45 0 -13 5 -23 10 -23 6 0 10 10 10 23
0 12 7 33 16 45 8 12 11 22 5 22 -5 0 -13 -9 -16 -20 -3 -11 -10 -20 -15 -20
-5 0 -12 9 -15 20 -3 11 -11 20 -16 20 -6 0 -3 -10 5 -22z"/>
<path d="M1542 1308 c-36 -36 7 -91 54 -69 42 19 26 81 -21 81 -12 0 -26 -5
-33 -12z m66 -24 c2 -11 -4 -26 -12 -33 -31 -26 -71 14 -45 45 17 21 53 14 57
-12z"/>
<path d="M1653 1286 c1 -25 8 -43 20 -50 28 -18 52 4 54 50 l1 39 -7 -38 c-4
-20 -11 -40 -15 -44 -13 -14 -41 14 -48 48 l-6 34 1 -39z"/>
<path d="M1760 1276 c0 -25 5 -46 10 -46 6 0 10 7 10 15 0 20 20 19 35 -1 10
-14 12 -10 11 27 -1 42 -2 44 -33 47 -33 3 -33 3 -33 -42z m60 14 c0 -13 -7
-20 -20 -20 -13 0 -20 7 -20 20 0 13 7 20 20 20 13 0 20 -7 20 -20z"/>
<path d="M1912 1313 c12 -3 18 -17 21 -46 l4 -42 1 42 c2 30 7 43 20 46 9 3
-1 5 -23 5 -22 0 -32 -2 -23 -5z"/>
<path d="M2001 1273 c1 -26 3 -40 6 -30 6 21 32 22 47 2 9 -12 11 -6 11 27 0
41 -1 43 -32 46 l-33 3 1 -48z m57 20 c-2 -10 -13 -19 -26 -21 -17 -3 -22 2
-22 17 0 16 6 21 26 21 19 0 25 -5 22 -17z"/>
<path d="M2116 1279 c-9 -23 -14 -44 -11 -47 3 -3 5 0 5 6 0 7 14 12 30 12 17
0 30 -4 30 -10 0 -5 4 -10 10 -10 11 0 -25 83 -38 88 -5 1 -17 -16 -26 -39z
m38 5 c9 -22 8 -24 -9 -24 -8 0 -15 9 -15 20 0 24 15 27 24 4z"/>
<path d="M2211 1314 c-2 -22 31 -86 39 -78 15 16 39 84 29 84 -5 0 -9 -4 -9
-9 0 -5 -5 -22 -11 -38 l-11 -28 -18 40 c-10 22 -19 35 -19 29z"/>
<path d="M2320 1275 c0 -44 0 -45 33 -44 30 2 30 2 5 6 -34 5 -37 30 -5 36
l22 4 -22 2 c-33 2 -29 29 5 34 25 4 25 4 -5 6 -33 1 -33 0 -33 -44z"/>
<path d="M2410 1275 c0 -44 0 -45 33 -44 23 1 26 3 10 6 -19 4 -23 11 -23 44
0 21 -4 39 -10 39 -5 0 -10 -20 -10 -45z"/>
<path d="M2490 1275 l0 -45 38 1 c30 2 32 3 10 6 -34 5 -37 30 -5 36 l22 4
-22 2 c-33 2 -29 29 5 34 22 3 20 4 -10 6 l-38 1 0 -45z"/>
<path d="M2591 1273 c1 -26 3 -40 6 -30 6 21 32 22 47 2 9 -12 11 -6 11 27 0
41 -1 43 -32 46 l-33 3 1 -48z m57 20 c-2 -10 -13 -19 -26 -21 -17 -3 -22 2
-22 17 0 16 6 21 26 21 19 0 25 -5 22 -17z"/>
<path d="M2740 1275 l0 -45 38 2 c36 1 36 1 5 5 -40 5 -44 30 -5 36 l27 4 -27
2 c-17 0 -28 7 -28 15 0 8 12 17 28 19 25 4 25 4 -5 6 -33 1 -33 0 -33 -44z"/>
<path d="M2842 1275 c1 -40 2 -43 5 -15 l5 35 29 -35 28 -35 -1 50 c-1 38 -2
42 -5 16 l-4 -34 -29 34 -29 34 1 -50z"/>
<path d="M2953 1275 c0 -27 2 -40 4 -27 3 17 11 22 33 22 22 0 30 -5 33 -22 2
-13 4 0 4 27 0 28 -2 40 -4 28 -3 -18 -11 -23 -33 -23 -22 0 -30 5 -33 23 -2
12 -4 0 -4 -28z"/>
<path d="M3076 1279 c-9 -23 -14 -44 -11 -47 3 -3 5 0 5 6 0 7 14 12 30 12 17
0 30 -4 30 -10 0 -5 4 -10 10 -10 11 0 -25 83 -38 88 -5 1 -17 -16 -26 -39z
m38 5 c9 -22 8 -24 -9 -24 -8 0 -15 9 -15 20 0 24 15 27 24 4z"/>
<path d="M3182 1275 c1 -40 2 -43 5 -15 l5 35 29 -35 28 -35 -1 50 c-1 38 -2
42 -5 16 l-4 -34 -29 34 -29 34 1 -50z"/>
<path d="M3304 1312 c-19 -13 -23 -39 -8 -61 16 -23 49 -28 60 -9 4 7 3 8 -5
4 -6 -4 -20 -4 -32 -1 -15 5 -19 14 -17 33 2 22 8 27 31 27 15 -1 27 3 27 7 0
10 -41 10 -56 0z"/>
<path d="M3390 1275 l0 -45 38 2 c36 1 36 1 5 5 -40 5 -44 30 -5 36 l27 4 -27
2 c-17 0 -28 7 -28 15 0 8 12 17 28 19 25 4 25 4 -5 6 -33 1 -33 0 -33 -44z"/>
<path d="M3491 1273 c1 -26 3 -40 6 -30 5 21 21 22 42 3 14 -13 16 -10 16 27
0 40 -2 42 -32 45 l-33 3 1 -48z m54 17 c0 -8 -10 -16 -22 -18 -18 -3 -23 2
-23 18 0 16 5 21 23 18 12 -2 22 -10 22 -18z"/>
</g>
</svg>
